<svg id="Layer_1" data-name="Layer 1" xmlns="http://www.w3.org/2000/svg" viewBox="0 0 438.7 489.7"><defs><style>.cls-1{fill:#fff;}.cls-2{fill:#fb0;}.cls-3{fill:#7600ff;}</style></defs><polygon class="cls-1" points="225.92 43.46 395.67 152.62 389.23 354.34 213.03 446.9 43.28 337.73 49.73 136.01 225.92 43.46"/><polygon class="cls-2" points="88.89 233.62 166.3 156.18 205.02 194.91 127.6 272.34 88.89 233.62"/><polygon class="cls-3" points="233.87 193.89 274.93 152.85 357.02 234.93 315.97 275.97 233.87 193.89"/><circle class="cls-2" cx="405.78" cy="154.33" r="37.8" transform="translate(169.4 519.36) rotate(-80.01)"/><circle class="cls-2" cx="232.78" cy="451.33" r="37.8" transform="translate(-266.08 594.46) rotate(-80.01)"/><circle class="cls-2" cx="60.78" cy="154.33" r="37.8" transform="translate(-115.74 179.6) rotate(-80.01)"/><path d="M297.47,161.23a11.49,11.49,0,0,0-16,0l-34,34.31a11.52,11.52,0,0,0,0,16.1l9.22,9.19c-6-.48-14.36,2.64-15.14,2.59l-21.15-6.61,5.12-5.15a11.43,11.43,0,0,0,0-16.11l-34-34.32a11.5,11.5,0,0,0-16,0L101.3,236a11.46,11.46,0,0,0,0,16.13l34,34.3a11.23,11.23,0,0,0,16,0l2.33-2.36c6,12.72,26.27,38.59,40.38,52.82l18.56,18.71c5.69,5.73,23.32,5.07,26.81,1.56A14.79,14.79,0,0,0,244,348c4.09,1,10.23.51,14-3.25a14.67,14.67,0,0,0,4.6-9.23c4.09,1,10.23.53,14-3.23a14.67,14.67,0,0,0,4.59-9.22c4.12.91,10.24.5,14-3.25a16.07,16.07,0,0,0,4.1-16.82c5.31-5,14.27-10.81,23.12-16.12a11,11,0,0,0,15.41-.38l34-34.3a11.47,11.47,0,0,0,0-16.1ZM143.31,274.78,112.9,244.12l70.61-71.2,30.41,30.66Zm142.44,34.89a12.52,12.52,0,0,1-2.28-.44,20.34,20.34,0,0,0-4.82-.73,10,10,0,0,0-7.31,3,12.93,12.93,0,0,0-3.68,8.59,4.61,4.61,0,0,1-.45,2.1,13.53,13.53,0,0,1-2.29-.44,19.69,19.69,0,0,0-4.82-.73,10,10,0,0,0-7.32,3,12.92,12.92,0,0,0-3.68,8.57,4.4,4.4,0,0,1-.46,2.1,12.6,12.6,0,0,1-2.29-.44,20,20,0,0,0-4.81-.72,10,10,0,0,0-7.31,2.95,12.92,12.92,0,0,0-3.69,8.59c-.15,1.43-.16,1.51-1,2.33-1.28,1.3-2.13,1.3-2.41,1.3-1.26,0-3-1-4.81-2.85L203.8,327.06C188,311.09,170,285.64,163,274.63l46.38-46.74,10.23,2.91c-8.56,6.58-15.35,16-20.83,22.87-1.82,2.27-3.26,4.1-4.28,5.12-4.33,4.37-5.66,8.94-3.94,13.6,1.27,3.46,4,6.24,7.52,9.76a15.68,15.68,0,0,0,11.35,4.8c8.82,0,17.28-6.75,25.45-13.28,1.8-1.43,7.18-5.1,10.56-7.39,13.28,12.19,26.09,24.13,35.13,33.24C288.08,307,286.09,309.05,285.75,309.67Zm5.88-18.61c-.45-.48-.74-.93-1.23-1.42-11.84-11.94-27.3-24.73-36.81-33.91-2.91-2.82-8.18-2-12.27-.7-4.79.82-9.26,3.11-15,7.68C220.9,267.05,213.48,273,209.46,273c-.54,0-3.67-2.25-4.27-2.85-1.15-1.16,2.22-5,4.4-7.7,7.6-9.49,17.71-20.18,30.95-25.31,11.25-4.37,19.07-2.49,29.43-2.33l42.08,41.94A161.43,161.43,0,0,0,291.63,291.06Zm38.06-16.31-70.63-71.17,30.42-30.65L360.1,244.1Z" transform="translate(-13.98 -7.82)"/><circle class="cls-3" cx="233.38" cy="54.82" r="37.8" transform="translate(124.92 267.33) rotate(-80.01)"/><circle class="cls-3" cx="391.8" cy="343.3" r="37.8"/><circle class="cls-3" cx="60.98" cy="351.12" r="37.8" transform="matrix(0.03, -1, 1, 0.03, -305.95, 392.57)"/><path d="M452.68,154.32a46.85,46.85,0,0,0-82.2-30.8l-92.7-53.7a46.9,46.9,0,1,0-91.3-15.1,46.27,46.27,0,0,0,2.5,15l-92.7,53.7A46.88,46.88,0,1,0,50.88,200l.1,105.2a46.88,46.88,0,1,0,44.7,77.2l93,53.7a46.35,46.35,0,0,0-2.3,14.5,46.9,46.9,0,0,0,93.8,0,46.35,46.35,0,0,0-2.3-14.5l93-53.7a46.89,46.89,0,1,0,43.9-77.4V200.22A46.7,46.7,0,0,0,452.68,154.32Zm-46.9-28.8a28.8,28.8,0,1,1-28.8,28.8A28.81,28.81,0,0,1,405.78,125.52ZM233.38,26a28.82,28.82,0,0,1,25.4,42.4,4.23,4.23,0,0,0-.5.7l-.3.6A28.78,28.78,0,1,1,233.38,26ZM32.18,154.32A28.8,28.8,0,1,1,61,183.12,28.81,28.81,0,0,1,32.18,154.32ZM61,379.92a28.8,28.8,0,1,1,28.8-28.8A28.81,28.81,0,0,1,61,379.92Zm172.4,99.5a28.8,28.8,0,1,1,28.8-28.8A28.81,28.81,0,0,1,233.38,479.42Zm35.7-59.1a46.69,46.69,0,0,0-71.4,0l-92.6-53.4a46.07,46.07,0,0,0,2.8-15.8,46.94,46.94,0,0,0-38.7-46.2l-.1-104.5a46.9,46.9,0,0,0,36.3-61.3l92.7-53.7a46.86,46.86,0,0,0,70.7,0l92.7,53.7a46.88,46.88,0,0,0,35.3,61.1V305A46.9,46.9,0,0,0,359,351a45.64,45.64,0,0,0,2.8,15.8Zm165.5-69.2a28.8,28.8,0,1,1-28.8-28.8A28.81,28.81,0,0,1,434.58,351.12Z" transform="translate(-13.98 -7.82)"/></svg>